<svg width="12" height="12" viewBox="0 0 12 12" fill="none" xmlns="http://www.w3.org/2000/svg">
<path fill-rule="evenodd" clip-rule="evenodd" d="M6 3C6.15913 3 6.31174 3.06321 6.42426 3.17574C6.53679 3.28826 6.6 3.44087 6.6 3.6V5.4H8.4C8.55913 5.4 8.71174 5.46321 8.82426 5.57574C8.93679 5.68826 9 5.84087 9 6C9 6.15913 8.93679 6.31174 8.82426 6.42426C8.71174 6.53679 8.55913 6.6 8.4 6.6H6.6V8.4C6.6 8.55913 6.53679 8.71174 6.42426 8.82426C6.31174 8.93679 6.15913 9 6 9C5.84087 9 5.68826 8.93679 5.57574 8.82426C5.46321 8.71174 5.4 8.55913 5.4 8.4V6.6H3.6C3.44087 6.6 3.28826 6.53679 3.17574 6.42426C3.06321 6.31174 3 6.15913 3 6C3 5.84087 3.06321 5.68826 3.17574 5.57574C3.28826 5.46321 3.44087 5.4 3.6 5.4H5.4V3.6C5.4 3.44087 5.46321 3.28826 5.57574 3.17574C5.68826 3.06321 5.84087 3 6 3Z" fill="black"/>
</svg>
