<svg width="1440" height="2212" viewBox="0 0 1440 2212" fill="none" xmlns="http://www.w3.org/2000/svg">
<g clip-path="url(#clip0_1127_4927)">
<rect width="1440" height="2212" fill="#FFF9F1"/>
<line x1="27.5" y1="2270.19" x2="27.5" y2="-397" stroke="#B3B3B3"/>
<line x1="111.5" y1="2270.19" x2="111.5" y2="-397" stroke="#B3B3B3"/>
<line x1="69.5" y1="2270.19" x2="69.5" y2="-397" stroke="#B3B3B3"/>
<line x1="190.5" y1="2289.45" x2="190.5" y2="-377.738" stroke="#B3B3B3"/>
<line x1="148.5" y1="2289.45" x2="148.5" y2="-377.738" stroke="#B3B3B3"/>
<line x1="269.5" y1="2289.45" x2="269.5" y2="-377.738" stroke="#B3B3B3"/>
<line x1="232.5" y1="2289.45" x2="232.5" y2="-377.738" stroke="#B3B3B3"/>
<line x1="353.5" y1="2280.46" x2="353.5" y2="-386.727" stroke="#B3B3B3"/>
<line x1="311.5" y1="2280.46" x2="311.5" y2="-386.727" stroke="#B3B3B3"/>
<line x1="437.5" y1="2280.46" x2="437.5" y2="-386.727" stroke="#B3B3B3"/>
<line x1="395.5" y1="2280.46" x2="395.5" y2="-386.727" stroke="#B3B3B3"/>
<line x1="516.5" y1="2299.73" x2="516.5" y2="-367.465" stroke="#B3B3B3"/>
<line x1="474.5" y1="2299.73" x2="474.5" y2="-367.465" stroke="#B3B3B3"/>
<line x1="595.5" y1="2299.73" x2="595.5" y2="-367.465" stroke="#B3B3B3"/>
<line x1="558.5" y1="2299.73" x2="558.5" y2="-367.465" stroke="#B3B3B3"/>
<line x1="679.5" y1="2280.46" x2="679.5" y2="-386.727" stroke="#B3B3B3"/>
<line x1="637.5" y1="2280.46" x2="637.5" y2="-386.727" stroke="#B3B3B3"/>
<line x1="763.5" y1="2280.46" x2="763.5" y2="-386.727" stroke="#B3B3B3"/>
<line x1="721.5" y1="2280.46" x2="721.5" y2="-386.727" stroke="#B3B3B3"/>
<line x1="842.5" y1="2299.73" x2="842.5" y2="-367.465" stroke="#B3B3B3"/>
<line x1="800.5" y1="2299.73" x2="800.5" y2="-367.465" stroke="#B3B3B3"/>
<line x1="921.5" y1="2299.73" x2="921.5" y2="-367.465" stroke="#B3B3B3"/>
<line x1="884.5" y1="2299.73" x2="884.5" y2="-367.465" stroke="#B3B3B3"/>
<line x1="1005.5" y1="2290.74" x2="1005.5" y2="-376.454" stroke="#B3B3B3"/>
<line x1="963.5" y1="2290.74" x2="963.5" y2="-376.454" stroke="#B3B3B3"/>
<line x1="1089.5" y1="2290.74" x2="1089.5" y2="-376.454" stroke="#B3B3B3"/>
<line x1="1047.5" y1="2290.74" x2="1047.5" y2="-376.454" stroke="#B3B3B3"/>
<line x1="1168.5" y1="2310" x2="1168.5" y2="-357.191" stroke="#B3B3B3"/>
<line x1="1126.5" y1="2310" x2="1126.5" y2="-357.191" stroke="#B3B3B3"/>
<line x1="1247.5" y1="2310" x2="1247.5" y2="-357.191" stroke="#B3B3B3"/>
<line x1="1210.5" y1="2310" x2="1210.5" y2="-357.191" stroke="#B3B3B3"/>
<line x1="1405.5" y1="2310" x2="1405.5" y2="-357.191" stroke="#B3B3B3"/>
<line x1="1368.5" y1="2310" x2="1368.5" y2="-357.191" stroke="#B3B3B3"/>
<line x1="1326.5" y1="2310" x2="1326.5" y2="-357.191" stroke="#B3B3B3"/>
<line x1="1289.5" y1="2310" x2="1289.5" y2="-357.191" stroke="#B3B3B3"/>
<line x1="1703" y1="1180.5" x2="-374" y2="1180.5" stroke="#B3B3B3"/>
<line x1="1703" y1="1222.5" x2="-374" y2="1222.5" stroke="#B3B3B3"/>
<line x1="1703" y1="1096.5" x2="-374" y2="1096.5" stroke="#B3B3B3"/>
<line x1="1703" y1="1138.5" x2="-374" y2="1138.5" stroke="#B3B3B3"/>
<line x1="1718" y1="1017.5" x2="-359" y2="1017.5" stroke="#B3B3B3"/>
<line x1="1718" y1="1059.5" x2="-359" y2="1059.5" stroke="#B3B3B3"/>
<line x1="1718" y1="938.5" x2="-359" y2="938.5" stroke="#B3B3B3"/>
<line x1="1718" y1="975.5" x2="-359" y2="975.5" stroke="#B3B3B3"/>
<line x1="1711" y1="854.5" x2="-366" y2="854.5" stroke="#B3B3B3"/>
<line x1="1711" y1="896.5" x2="-366" y2="896.5" stroke="#B3B3B3"/>
<line x1="1711" y1="770.5" x2="-366" y2="770.5" stroke="#B3B3B3"/>
<line x1="1711" y1="812.5" x2="-366" y2="812.5" stroke="#B3B3B3"/>
<line x1="1726" y1="691.5" x2="-351" y2="691.5" stroke="#B3B3B3"/>
<line x1="1726" y1="733.5" x2="-351" y2="733.5" stroke="#B3B3B3"/>
<line x1="1726" y1="612.5" x2="-351" y2="612.5" stroke="#B3B3B3"/>
<line x1="1726" y1="649.5" x2="-351" y2="649.5" stroke="#B3B3B3"/>
<line x1="1711" y1="528.5" x2="-366" y2="528.5" stroke="#B3B3B3"/>
<line x1="1711" y1="570.5" x2="-366" y2="570.5" stroke="#B3B3B3"/>
<line x1="1711" y1="444.5" x2="-366" y2="444.5" stroke="#B3B3B3"/>
<line x1="1711" y1="486.5" x2="-366" y2="486.5" stroke="#B3B3B3"/>
<line x1="1726" y1="365.5" x2="-351" y2="365.5" stroke="#B3B3B3"/>
<line x1="1726" y1="407.5" x2="-351" y2="407.5" stroke="#B3B3B3"/>
<line x1="1726" y1="286.5" x2="-351" y2="286.5" stroke="#B3B3B3"/>
<line x1="1726" y1="323.5" x2="-351" y2="323.5" stroke="#B3B3B3"/>
<line x1="1719" y1="202.5" x2="-358" y2="202.5" stroke="#B3B3B3"/>
<line x1="1719" y1="244.5" x2="-358" y2="244.5" stroke="#B3B3B3"/>
<line x1="1719" y1="118.5" x2="-358" y2="118.5" stroke="#B3B3B3"/>
<line x1="1719" y1="160.5" x2="-358" y2="160.5" stroke="#B3B3B3"/>
<line x1="1734" y1="39.5" x2="-343" y2="39.5" stroke="#B3B3B3"/>
<line x1="1734" y1="81.5" x2="-343" y2="81.5" stroke="#B3B3B3"/>
<line x1="1726" y1="2147.5" x2="-351" y2="2147.5" stroke="#B3B3B3"/>
<line x1="1726" y1="2189.5" x2="-351" y2="2189.5" stroke="#B3B3B3"/>
<line x1="1726" y1="2068.5" x2="-351" y2="2068.5" stroke="#B3B3B3"/>
<line x1="1726" y1="2105.5" x2="-351" y2="2105.5" stroke="#B3B3B3"/>
<line x1="1711" y1="1984.5" x2="-366" y2="1984.5" stroke="#B3B3B3"/>
<line x1="1711" y1="2026.5" x2="-366" y2="2026.5" stroke="#B3B3B3"/>
<line x1="1711" y1="1900.5" x2="-366" y2="1900.5" stroke="#B3B3B3"/>
<line x1="1711" y1="1942.5" x2="-366" y2="1942.5" stroke="#B3B3B3"/>
<line x1="1726" y1="1821.5" x2="-351" y2="1821.5" stroke="#B3B3B3"/>
<line x1="1726" y1="1863.5" x2="-351" y2="1863.5" stroke="#B3B3B3"/>
<line x1="1726" y1="1742.5" x2="-351" y2="1742.5" stroke="#B3B3B3"/>
<line x1="1726" y1="1779.5" x2="-351" y2="1779.5" stroke="#B3B3B3"/>
<line x1="1719" y1="1658.5" x2="-358" y2="1658.5" stroke="#B3B3B3"/>
<line x1="1719" y1="1700.5" x2="-358" y2="1700.5" stroke="#B3B3B3"/>
<line x1="1719" y1="1574.5" x2="-358" y2="1574.5" stroke="#B3B3B3"/>
<line x1="1719" y1="1616.5" x2="-358" y2="1616.5" stroke="#B3B3B3"/>
<line x1="1734" y1="1495.5" x2="-343" y2="1495.5" stroke="#B3B3B3"/>
<line x1="1734" y1="1537.5" x2="-343" y2="1537.5" stroke="#B3B3B3"/>
<line x1="1734" y1="1416.5" x2="-343" y2="1416.5" stroke="#B3B3B3"/>
<line x1="1734" y1="1453.5" x2="-343" y2="1453.5" stroke="#B3B3B3"/>
<line x1="1734" y1="1258.5" x2="-343" y2="1258.5" stroke="#B3B3B3"/>
<line x1="1734" y1="1295.5" x2="-343" y2="1295.5" stroke="#B3B3B3"/>
<line x1="1734" y1="1337.5" x2="-343" y2="1337.5" stroke="#B3B3B3"/>
<line x1="1734" y1="1374.5" x2="-343" y2="1374.5" stroke="#B3B3B3"/>
</g>
<defs>
<clipPath id="clip0_1127_4927">
<rect width="1440" height="2212" fill="white"/>
</clipPath>
</defs>
</svg>
