<svg width="36" height="36" viewBox="0 0 36 36" fill="none" xmlns="http://www.w3.org/2000/svg">
<path d="M33.0075 21.1865L35.9621 6.56149C36.1754 5.50554 35.4619 4.5 34.4994 4.5H9.9505L9.37763 1.3493C9.23488 0.563977 8.62063 0 7.90806 0H1.5C0.671563 0 0 0.755508 0 1.6875V2.8125C0 3.74449 0.671563 4.5 1.5 4.5H5.86769L10.2582 28.6478C9.20781 29.3273 8.5 30.6015 8.5 32.0625C8.5 34.2371 10.067 36 12 36C13.933 36 15.5 34.2371 15.5 32.0625C15.5 30.9604 15.0971 29.9647 14.4485 29.25H27.5514C26.9029 29.9647 26.5 30.9604 26.5 32.0625C26.5 34.2371 28.067 36 30 36C31.933 36 33.5 34.2371 33.5 32.0625C33.5 30.5035 32.6945 29.1563 31.5263 28.5184L31.8711 26.8115C32.0844 25.7555 31.371 24.75 30.4084 24.75H13.6323L13.2233 22.5H31.5448C32.2452 22.5 32.8523 21.9548 33.0075 21.1865Z" fill="black"/>
</svg>
