<svg width="1440" height="2212" viewBox="0 0 1440 2212" fill="none" xmlns="http://www.w3.org/2000/svg">
<g clip-path="url(#clip0_805_4076)">
<rect width="1440" height="2212" fill="#FFF9F1"/>
<line x1="57.5" y1="2494.19" x2="57.5" y2="-173" stroke="#B3B3B3"/>
<line x1="15.5" y1="2494.19" x2="15.5" y2="-173" stroke="#B3B3B3"/>
<line x1="141.5" y1="2494.19" x2="141.5" y2="-173" stroke="#B3B3B3"/>
<line x1="99.5" y1="2494.19" x2="99.5" y2="-173" stroke="#B3B3B3"/>
<line x1="220.5" y1="2513.45" x2="220.5" y2="-153.738" stroke="#B3B3B3"/>
<line x1="178.5" y1="2513.45" x2="178.5" y2="-153.738" stroke="#B3B3B3"/>
<line x1="299.5" y1="2513.45" x2="299.5" y2="-153.738" stroke="#B3B3B3"/>
<line x1="262.5" y1="2513.45" x2="262.5" y2="-153.738" stroke="#B3B3B3"/>
<line x1="383.5" y1="2504.46" x2="383.5" y2="-162.727" stroke="#B3B3B3"/>
<line x1="341.5" y1="2504.46" x2="341.5" y2="-162.727" stroke="#B3B3B3"/>
<line x1="467.5" y1="2504.46" x2="467.5" y2="-162.727" stroke="#B3B3B3"/>
<line x1="425.5" y1="2504.46" x2="425.5" y2="-162.727" stroke="#B3B3B3"/>
<line x1="546.5" y1="2523.73" x2="546.5" y2="-143.464" stroke="#B3B3B3"/>
<line x1="504.5" y1="2523.73" x2="504.5" y2="-143.464" stroke="#B3B3B3"/>
<line x1="625.5" y1="2523.73" x2="625.5" y2="-143.464" stroke="#B3B3B3"/>
<line x1="588.5" y1="2523.73" x2="588.5" y2="-143.464" stroke="#B3B3B3"/>
<line x1="709.5" y1="2504.46" x2="709.5" y2="-162.727" stroke="#B3B3B3"/>
<line x1="667.5" y1="2504.46" x2="667.5" y2="-162.727" stroke="#B3B3B3"/>
<line x1="793.5" y1="2504.46" x2="793.5" y2="-162.727" stroke="#B3B3B3"/>
<line x1="751.5" y1="2504.46" x2="751.5" y2="-162.727" stroke="#B3B3B3"/>
<line x1="872.5" y1="2523.73" x2="872.5" y2="-143.464" stroke="#B3B3B3"/>
<line x1="830.5" y1="2523.73" x2="830.5" y2="-143.464" stroke="#B3B3B3"/>
<line x1="951.5" y1="2523.73" x2="951.5" y2="-143.464" stroke="#B3B3B3"/>
<line x1="914.5" y1="2523.73" x2="914.5" y2="-143.464" stroke="#B3B3B3"/>
<line x1="1035.5" y1="2514.74" x2="1035.5" y2="-152.454" stroke="#B3B3B3"/>
<line x1="993.5" y1="2514.74" x2="993.5" y2="-152.454" stroke="#B3B3B3"/>
<line x1="1119.5" y1="2514.74" x2="1119.5" y2="-152.454" stroke="#B3B3B3"/>
<line x1="1077.5" y1="2514.74" x2="1077.5" y2="-152.454" stroke="#B3B3B3"/>
<line x1="1198.5" y1="2534" x2="1198.5" y2="-133.191" stroke="#B3B3B3"/>
<line x1="1156.5" y1="2534" x2="1156.5" y2="-133.191" stroke="#B3B3B3"/>
<line x1="1277.5" y1="2534" x2="1277.5" y2="-133.191" stroke="#B3B3B3"/>
<line x1="1240.5" y1="2534" x2="1240.5" y2="-133.191" stroke="#B3B3B3"/>
<line x1="1435.5" y1="2534" x2="1435.5" y2="-133.191" stroke="#B3B3B3"/>
<line x1="1398.5" y1="2534" x2="1398.5" y2="-133.191" stroke="#B3B3B3"/>
<line x1="1356.5" y1="2534" x2="1356.5" y2="-133.191" stroke="#B3B3B3"/>
<line x1="1319.5" y1="2534" x2="1319.5" y2="-133.191" stroke="#B3B3B3"/>
<line x1="1733" y1="1404.5" x2="-344" y2="1404.5" stroke="#B3B3B3"/>
<line x1="1733" y1="1446.5" x2="-344" y2="1446.5" stroke="#B3B3B3"/>
<line x1="1733" y1="1320.5" x2="-344" y2="1320.5" stroke="#B3B3B3"/>
<line x1="1733" y1="1362.5" x2="-344" y2="1362.5" stroke="#B3B3B3"/>
<line x1="1748" y1="1241.5" x2="-329" y2="1241.5" stroke="#B3B3B3"/>
<line x1="1748" y1="1283.5" x2="-329" y2="1283.5" stroke="#B3B3B3"/>
<line x1="1748" y1="1162.5" x2="-329" y2="1162.5" stroke="#B3B3B3"/>
<line x1="1748" y1="1199.5" x2="-329" y2="1199.5" stroke="#B3B3B3"/>
<line x1="1741" y1="1078.5" x2="-336" y2="1078.5" stroke="#B3B3B3"/>
<line x1="1741" y1="1120.5" x2="-336" y2="1120.5" stroke="#B3B3B3"/>
<line x1="1741" y1="994.5" x2="-336" y2="994.5" stroke="#B3B3B3"/>
<line x1="1741" y1="1036.5" x2="-336" y2="1036.5" stroke="#B3B3B3"/>
<line x1="1756" y1="915.5" x2="-321" y2="915.5" stroke="#B3B3B3"/>
<line x1="1756" y1="957.5" x2="-321" y2="957.5" stroke="#B3B3B3"/>
<line x1="1756" y1="836.5" x2="-321" y2="836.5" stroke="#B3B3B3"/>
<line x1="1756" y1="873.5" x2="-321" y2="873.5" stroke="#B3B3B3"/>
<line x1="1741" y1="752.5" x2="-336" y2="752.5" stroke="#B3B3B3"/>
<line x1="1741" y1="794.5" x2="-336" y2="794.5" stroke="#B3B3B3"/>
<line x1="1741" y1="668.5" x2="-336" y2="668.5" stroke="#B3B3B3"/>
<line x1="1741" y1="710.5" x2="-336" y2="710.5" stroke="#B3B3B3"/>
<line x1="1756" y1="589.5" x2="-321" y2="589.5" stroke="#B3B3B3"/>
<line x1="1756" y1="631.5" x2="-321" y2="631.5" stroke="#B3B3B3"/>
<line x1="1756" y1="510.5" x2="-321" y2="510.5" stroke="#B3B3B3"/>
<line x1="1756" y1="547.5" x2="-321" y2="547.5" stroke="#B3B3B3"/>
<line x1="1749" y1="426.5" x2="-328" y2="426.5" stroke="#B3B3B3"/>
<line x1="1749" y1="468.5" x2="-328" y2="468.5" stroke="#B3B3B3"/>
<line x1="1749" y1="342.5" x2="-328" y2="342.5" stroke="#B3B3B3"/>
<line x1="1749" y1="384.5" x2="-328" y2="384.5" stroke="#B3B3B3"/>
<line x1="1764" y1="263.5" x2="-313" y2="263.5" stroke="#B3B3B3"/>
<line x1="1764" y1="305.5" x2="-313" y2="305.5" stroke="#B3B3B3"/>
<line x1="1764" y1="184.5" x2="-313" y2="184.5" stroke="#B3B3B3"/>
<line x1="1764" y1="221.5" x2="-313" y2="221.5" stroke="#B3B3B3"/>
<line x1="1764" y1="26.5" x2="-313" y2="26.5" stroke="#B3B3B3"/>
<line x1="1764" y1="63.5" x2="-313" y2="63.5" stroke="#B3B3B3"/>
<line x1="1764" y1="105.5" x2="-313" y2="105.5" stroke="#B3B3B3"/>
<line x1="1764" y1="142.5" x2="-313" y2="142.5" stroke="#B3B3B3"/>
<line x1="1741" y1="2208.5" x2="-336" y2="2208.5" stroke="#B3B3B3"/>
<line x1="1741" y1="2124.5" x2="-336" y2="2124.5" stroke="#B3B3B3"/>
<line x1="1741" y1="2166.5" x2="-336" y2="2166.5" stroke="#B3B3B3"/>
<line x1="1756" y1="2045.5" x2="-321" y2="2045.5" stroke="#B3B3B3"/>
<line x1="1756" y1="2087.5" x2="-321" y2="2087.5" stroke="#B3B3B3"/>
<line x1="1756" y1="1966.5" x2="-321" y2="1966.5" stroke="#B3B3B3"/>
<line x1="1756" y1="2003.5" x2="-321" y2="2003.5" stroke="#B3B3B3"/>
<line x1="1749" y1="1882.5" x2="-328" y2="1882.5" stroke="#B3B3B3"/>
<line x1="1749" y1="1924.5" x2="-328" y2="1924.5" stroke="#B3B3B3"/>
<line x1="1749" y1="1798.5" x2="-328" y2="1798.5" stroke="#B3B3B3"/>
<line x1="1749" y1="1840.5" x2="-328" y2="1840.5" stroke="#B3B3B3"/>
<line x1="1764" y1="1719.5" x2="-313" y2="1719.5" stroke="#B3B3B3"/>
<line x1="1764" y1="1761.5" x2="-313" y2="1761.5" stroke="#B3B3B3"/>
<line x1="1764" y1="1640.5" x2="-313" y2="1640.5" stroke="#B3B3B3"/>
<line x1="1764" y1="1677.5" x2="-313" y2="1677.5" stroke="#B3B3B3"/>
<line x1="1764" y1="1482.5" x2="-313" y2="1482.5" stroke="#B3B3B3"/>
<line x1="1764" y1="1519.5" x2="-313" y2="1519.5" stroke="#B3B3B3"/>
<line x1="1764" y1="1561.5" x2="-313" y2="1561.5" stroke="#B3B3B3"/>
<line x1="1764" y1="1598.5" x2="-313" y2="1598.5" stroke="#B3B3B3"/>
</g>
<defs>
<clipPath id="clip0_805_4076">
<rect width="1440" height="2212" fill="white"/>
</clipPath>
</defs>
</svg>
