<svg width="50" height="50" viewBox="0 0 50 50" fill="none" xmlns="http://www.w3.org/2000/svg">
<mask id="mask0_662_6376" style="mask-type:alpha" maskUnits="userSpaceOnUse" x="0" y="0" width="50" height="50">
<path d="M49.2188 25C49.2188 38.3757 38.3757 49.2188 25 49.2188C11.6243 49.2188 0.78125 38.3757 0.78125 25C0.78125 11.6243 11.6243 0.78125 25 0.78125C38.3757 0.78125 49.2188 11.6243 49.2188 25ZM22.1986 37.8236L40.1674 19.8549C40.7775 19.2447 40.7775 18.2554 40.1674 17.6452L37.9577 15.4355C37.3476 14.8253 36.3582 14.8253 35.7479 15.4355L21.0938 30.0896L14.2521 23.2479C13.6419 22.6378 12.6525 22.6378 12.0423 23.2479L9.83262 25.4576C9.22246 26.0678 9.22246 27.0571 9.83262 27.6673L19.9889 37.8235C20.5991 38.4338 21.5884 38.4338 22.1986 37.8236Z" fill="black"/>
</mask>
<g mask="url(#mask0_662_6376)">
<rect x="-15" y="-6" width="81" height="73" fill="white"/>
</g>
</svg>
