<svg width="36" height="36" viewBox="0 0 36 36" fill="none" xmlns="http://www.w3.org/2000/svg">
<path d="M18 20.25C23.5898 20.25 28.125 15.7148 28.125 10.125C28.125 4.53516 23.5898 0 18 0C12.4102 0 7.875 4.53516 7.875 10.125C7.875 15.7148 12.4102 20.25 18 20.25ZM27 22.5H23.1258C21.5648 23.2172 19.8281 23.625 18 23.625C16.1719 23.625 14.4422 23.2172 12.8742 22.5H9C4.02891 22.5 0 26.5289 0 31.5V32.625C0 34.4883 1.51172 36 3.375 36H32.625C34.4883 36 36 34.4883 36 32.625V31.5C36 26.5289 31.9711 22.5 27 22.5Z" fill="black"/>
</svg>
